<svg width="10" height="12" viewBox="0 0 10 12" fill="none" xmlns="http://www.w3.org/2000/svg">
<path d="M8 2.00004H6.97C6.89128 1.53435 6.65031 1.11155 6.28974 0.806502C5.92918 0.501456 5.47229 0.333853 5 0.333374C4.52771 0.333853 4.07082 0.501456 3.71026 0.806502C3.34969 1.11155 3.10872 1.53435 3.03 2.00004H2C1.73478 2.00004 1.48043 2.1054 1.29289 2.29293C1.10536 2.48047 1 2.73482 1 3.00004V10.6667C1 10.9319 1.10536 11.1863 1.29289 11.3738C1.48043 11.5613 1.73478 11.6667 2 11.6667H8C8.26522 11.6667 8.51957 11.5613 8.70711 11.3738C8.89464 11.1863 9 10.9319 9 10.6667V3.00004C9 2.73482 8.89464 2.48047 8.70711 2.29293C8.51957 2.1054 8.26522 2.00004 8 2.00004ZM5 1.00004C5.35362 1.00004 5.69276 1.14052 5.94281 1.39056C6.19286 1.64061 6.33333 1.97975 6.33333 2.33337V3.00004H3.66667V2.33337C3.66667 1.97975 3.80714 1.64061 4.05719 1.39056C4.30724 1.14052 4.64638 1.00004 5 1.00004ZM8.33333 10.6667C8.33333 10.7551 8.29821 10.8399 8.2357 10.9024C8.17319 10.9649 8.08841 11 8 11H2C1.91159 11 1.82681 10.9649 1.7643 10.9024C1.70179 10.8399 1.66667 10.7551 1.66667 10.6667V3.00004C1.66667 2.91163 1.70179 2.82685 1.7643 2.76434C1.82681 2.70183 1.91159 2.66671 2 2.66671H3V3.33337C3 3.42178 3.03512 3.50656 3.09763 3.56908C3.16014 3.63159 3.24493 3.66671 3.33333 3.66671H6.66667C6.75507 3.66671 6.83986 3.63159 6.90237 3.56908C6.96488 3.50656 7 3.42178 7 3.33337V2.66671H8C8.08841 2.66671 8.17319 2.70183 8.2357 2.76434C8.29821 2.82685 8.33333 2.91163 8.33333 3.00004V10.6667Z" fill="#7B8394" stroke="#7B8394" stroke-width="0.2"/>
</svg>
