<svg width="25" height="19" viewBox="0 0 25 19" fill="none" xmlns="http://www.w3.org/2000/svg">
<path d="M21.1094 2.22076C19.5797 1.51888 17.9393 1.00176 16.2242 0.705588C16.193 0.699872 16.1618 0.714157 16.1457 0.742727C15.9348 1.11794 15.7011 1.60744 15.5374 1.99218C13.6927 1.71602 11.8575 1.71602 10.0507 1.99218C9.88699 1.59889 9.64483 1.11794 9.43292 0.742727C9.41683 0.71511 9.38563 0.700825 9.35439 0.705588C7.64025 1.00082 5.9999 1.51793 4.46928 2.22076C4.45603 2.22647 4.44467 2.236 4.43713 2.24838C1.32573 6.89674 0.473393 11.4308 0.891523 15.9087C0.893415 15.9306 0.905713 15.9516 0.922741 15.9649C2.97555 17.4725 4.96405 18.3877 6.91562 18.9943C6.94686 19.0038 6.97995 18.9924 6.99982 18.9667C7.46147 18.3363 7.87299 17.6715 8.22582 16.9725C8.24664 16.9315 8.22677 16.883 8.18421 16.8668C7.53148 16.6192 6.90994 16.3173 6.31207 15.9745C6.26478 15.9468 6.261 15.8792 6.3045 15.8468C6.43032 15.7525 6.55616 15.6544 6.6763 15.5554C6.69803 15.5373 6.72832 15.5335 6.75388 15.5449C10.6816 17.3382 14.9339 17.3382 18.8153 15.5449C18.8409 15.5325 18.8711 15.5364 18.8938 15.5545C19.014 15.6535 19.1398 15.7525 19.2666 15.8468C19.3101 15.8792 19.3072 15.9468 19.2599 15.9745C18.6621 16.3239 18.0405 16.6192 17.3869 16.8658C17.3443 16.882 17.3254 16.9315 17.3462 16.9725C17.7066 17.6705 18.1181 18.3353 18.5712 18.9657C18.5902 18.9924 18.6242 19.0038 18.6554 18.9943C20.6165 18.3877 22.605 17.4725 24.6578 15.9649C24.6758 15.9516 24.6871 15.9316 24.689 15.9097C25.1894 10.7327 23.8508 6.23582 21.1406 2.24932C21.1339 2.236 21.1226 2.22647 21.1094 2.22076ZM8.81237 13.1822C7.62984 13.1822 6.65548 12.0965 6.65548 10.7632C6.65548 9.42995 7.61095 8.34431 8.81237 8.34431C10.0232 8.34431 10.9882 9.43949 10.9692 10.7632C10.9692 12.0965 10.0138 13.1822 8.81237 13.1822ZM16.7871 13.1822C15.6046 13.1822 14.6302 12.0965 14.6302 10.7632C14.6302 9.42995 15.5857 8.34431 16.7871 8.34431C17.998 8.34431 18.9629 9.43949 18.944 10.7632C18.944 12.0965 17.998 13.1822 16.7871 13.1822Z" fill="black"/>
</svg>
