<svg width="25" height="19" viewBox="0 0 25 19" fill="none" xmlns="http://www.w3.org/2000/svg">
<path d="M21.1094 2.22064C19.5797 1.51876 17.9393 1.00164 16.2242 0.705466C16.193 0.69975 16.1618 0.714035 16.1457 0.742605C15.9348 1.11782 15.7011 1.60732 15.5374 1.99206C13.6927 1.71589 11.8575 1.71589 10.0507 1.99206C9.88699 1.59877 9.64483 1.11782 9.43292 0.742605C9.41683 0.714988 9.38563 0.700703 9.35439 0.705466C7.64025 1.00069 5.9999 1.51781 4.46928 2.22064C4.45603 2.22635 4.44467 2.23588 4.43713 2.24825C1.32573 6.89661 0.473393 11.4307 0.891523 15.9086C0.893415 15.9305 0.905713 15.9515 0.922741 15.9648C2.97555 17.4723 4.96405 18.3875 6.91562 18.9942C6.94686 19.0037 6.97995 18.9923 6.99982 18.9666C7.46147 18.3361 7.87299 17.6714 8.22582 16.9724C8.24664 16.9314 8.22677 16.8828 8.18421 16.8667C7.53148 16.6191 6.90994 16.3172 6.31207 15.9743C6.26478 15.9467 6.261 15.8791 6.3045 15.8467C6.43032 15.7524 6.55616 15.6543 6.6763 15.5553C6.69803 15.5372 6.72832 15.5334 6.75388 15.5448C10.6816 17.3381 14.9339 17.3381 18.8153 15.5448C18.8409 15.5324 18.8711 15.5362 18.8938 15.5543C19.014 15.6534 19.1398 15.7524 19.2666 15.8467C19.3101 15.8791 19.3072 15.9467 19.2599 15.9743C18.6621 16.3238 18.0405 16.6191 17.3869 16.8657C17.3443 16.8819 17.3254 16.9314 17.3462 16.9724C17.7066 17.6704 18.1181 18.3352 18.5712 18.9656C18.5902 18.9923 18.6242 19.0037 18.6554 18.9942C20.6165 18.3875 22.605 17.4723 24.6578 15.9648C24.6758 15.9515 24.6871 15.9315 24.689 15.9096C25.1894 10.7326 23.8508 6.2357 21.1406 2.2492C21.1339 2.23588 21.1226 2.22635 21.1094 2.22064ZM8.81237 13.182C7.62984 13.182 6.65548 12.0964 6.65548 10.7631C6.65548 9.42983 7.61095 8.34419 8.81237 8.34419C10.0232 8.34419 10.9882 9.43936 10.9692 10.7631C10.9692 12.0964 10.0138 13.182 8.81237 13.182ZM16.7871 13.182C15.6046 13.182 14.6302 12.0964 14.6302 10.7631C14.6302 9.42983 15.5857 8.34419 16.7871 8.34419C17.998 8.34419 18.9629 9.43936 18.944 10.7631C18.944 12.0964 17.998 13.182 16.7871 13.182Z" fill="white"/>
</svg>
