<svg width="16" height="10" viewBox="0 0 16 10" fill="none" xmlns="http://www.w3.org/2000/svg">
<path d="M8.01 1.66671C11.1773 1.66671 13.3853 3.67471 14.346 4.75737C13.412 5.98204 11.204 8.33337 8.01 8.33337C5.06333 8.33337 2.72333 5.97604 1.69133 4.72871C2.68667 3.63071 4.90267 1.66671 8.01 1.66671ZM8.01 0.333374C2.964 0.333374 0 4.70071 0 4.70071C0 4.70071 3.22333 9.66671 8.01 9.66671C13.1653 9.66671 16 4.70071 16 4.70071C16 4.70071 13.1393 0.333374 8.01 0.333374ZM8 2.33337C6.52667 2.33337 5.33333 3.52737 5.33333 5.00004C5.33333 6.47271 6.52667 7.66671 8 7.66671C9.47267 7.66671 10.6667 6.47271 10.6667 5.00004C10.6667 3.52737 9.47267 2.33337 8 2.33337ZM7.99733 4.99937C7.62133 5.37537 7.01133 5.37537 6.63467 4.99937C6.258 4.62337 6.258 4.01271 6.63467 3.63671C7.01067 3.26071 7.62067 3.26071 7.99733 3.63671C8.374 4.01271 8.374 4.62271 7.99733 4.99937Z" fill="#021437"/>
</svg>
