<svg width="25" height="24" viewBox="0 0 25 24" fill="none" xmlns="http://www.w3.org/2000/svg">
<g clip-path="url(#clip0_4:144)">
<path d="M24.7774 12C24.7774 5.38089 19.4115 0.0150146 12.7924 0.0150146C6.1732 0.0150146 0.807327 5.38089 0.807327 12C0.807327 17.9821 5.19007 22.9404 10.9197 23.8395V15.4645H7.87662V12H10.9197V9.35959C10.9197 6.35583 12.709 4.69667 15.4466 4.69667C16.7579 4.69667 18.1294 4.93075 18.1294 4.93075V7.88018H16.6181C15.1293 7.88018 14.665 8.80404 14.665 9.75185V12H17.989L17.4576 15.4645H14.665V23.8395C20.3946 22.9404 24.7774 17.9821 24.7774 12Z" fill="white"/>
</g>
<defs>
<clipPath id="clip0_4:144">
<rect width="24" height="24" fill="white" transform="translate(0.792343)"/>
</clipPath>
</defs>
</svg>
