<svg width="17" height="16" viewBox="0 0 17 16" fill="none" xmlns="http://www.w3.org/2000/svg">
<path d="M5.18667 1.99996C7.344 2.00063 8.502 4.32729 9 5.35396C9.5 4.32263 10.646 2.00663 12.8173 2.00663C14.1893 2.00663 15.6667 2.87929 15.6667 4.79463C15.6667 7.08929 12.504 10.0286 9 13.4613C5.49467 10.0273 2.33333 7.08863 2.33333 4.79463C2.33333 3.01063 3.64333 1.99929 5.18667 1.99996ZM5.18733 0.666626C3.06533 0.666626 1 2.12463 1 4.79463C1 7.90196 4.71333 11.0793 9 15.3333C13.2867 11.0793 17 7.90196 17 4.79463C17 2.12063 14.9353 0.673293 12.8173 0.673293C11.348 0.673293 9.85333 1.36796 9 2.83196C8.14333 1.36129 6.652 0.666626 5.18733 0.666626Z" fill="#021437" stroke="#021437" stroke-width="0.3"/>
</svg>
