<svg width="25" height="24" viewBox="0 0 25 24" fill="none" xmlns="http://www.w3.org/2000/svg">
<path fill-rule="evenodd" clip-rule="evenodd" d="M0.792343 12.0001C0.792343 5.37251 6.16584 1.14441e-05 12.7924 1.14441e-05C19.4196 1.14441e-05 24.7923 5.37251 24.7923 12.0001C24.7923 17.3003 21.3583 21.7968 16.5929 23.3854C15.9846 23.5032 15.7686 23.129 15.7686 22.8097C15.7686 22.6787 15.7702 22.4492 15.7722 22.1424V22.1423V22.1423V22.1422V22.1421V22.142V22.1418C15.7763 21.5229 15.7825 20.5897 15.7825 19.5166C15.7825 18.397 15.399 17.6667 14.9686 17.2943C17.6407 16.9972 20.448 15.9824 20.448 11.3734C20.448 10.0632 19.9824 8.99273 19.213 8.15236C19.3376 7.84991 19.7485 6.62959 19.0953 4.97667C19.0953 4.97667 18.089 4.65415 15.7986 6.20672C14.8396 5.94084 13.8123 5.8075 12.7924 5.80293C11.7726 5.8075 10.7461 5.94084 9.78884 6.20672C7.49565 4.65415 6.48796 4.97667 6.48796 4.97667C5.83637 6.62959 6.24711 7.84991 6.37171 8.15236C5.60407 8.99273 5.1353 10.0632 5.1353 11.3734C5.1353 15.9715 7.9372 17.0004 10.6026 17.3039C10.2594 17.6033 9.94841 18.1329 9.84071 18.9085C9.15593 19.2151 7.41895 19.7455 6.34866 17.9111C6.34866 17.9111 5.71416 16.7588 4.50914 16.6743C4.50914 16.6743 3.3383 16.659 4.42707 17.4038C4.42707 17.4038 5.21359 17.7726 5.75946 19.1597C5.75946 19.1597 6.46392 21.3014 9.80236 20.5755C9.80516 21.1202 9.80973 21.6479 9.81331 22.0623L9.81332 22.0629C9.81633 22.4111 9.81865 22.6791 9.81865 22.8097C9.81865 23.1266 9.59847 23.4981 8.99874 23.387C4.23074 21.8002 0.792343 17.3021 0.792343 12.0001ZM5.13172 17.2661C5.21717 17.3071 5.31096 17.2894 5.33739 17.2296C5.36759 17.1697 5.31792 17.0877 5.23068 17.0483C5.14384 17.0076 5.04985 17.0247 5.02401 17.0859C4.9958 17.1457 5.04468 17.227 5.13172 17.2661ZM5.82345 17.7716C5.76622 17.8247 5.65435 17.8 5.57844 17.7162C5.49995 17.6325 5.48524 17.5206 5.54327 17.4668C5.60228 17.4139 5.71078 17.4387 5.78947 17.5222C5.86797 17.6069 5.88327 17.7179 5.82345 17.7716ZM6.02852 18.3592C6.10284 18.466 6.22306 18.5138 6.29659 18.4628C6.3717 18.4105 6.37171 18.2825 6.29838 18.174C6.22306 18.0683 6.10463 18.022 6.03011 18.0733C5.955 18.1246 5.95499 18.2525 6.02852 18.3592ZM6.9448 19.1305C6.87903 19.203 6.73893 19.1835 6.63639 19.0846C6.53147 18.9878 6.50226 18.8505 6.56824 18.778C6.63481 18.7052 6.77569 18.7257 6.87903 18.8239C6.98315 18.9204 7.01495 19.0587 6.9448 19.1305ZM7.53918 19.6149C7.6751 19.6549 7.81003 19.6121 7.83904 19.5181C7.86726 19.4226 7.77823 19.3133 7.64271 19.2723C7.50579 19.2296 7.37027 19.2741 7.34205 19.3687C7.31463 19.4637 7.40345 19.5738 7.53918 19.6149ZM8.82108 19.5901C8.82446 19.6891 8.70921 19.7711 8.56653 19.7729C8.42305 19.7761 8.30701 19.696 8.30542 19.5986C8.30542 19.4987 8.41809 19.4174 8.56156 19.415C8.70424 19.4122 8.82108 19.4917 8.82108 19.5901ZM9.51123 19.6567C9.65292 19.6302 9.75208 19.5311 9.73499 19.4345C9.7169 19.3363 9.58992 19.2783 9.44804 19.3029C9.30894 19.3286 9.20799 19.4277 9.22528 19.5267C9.24297 19.6225 9.37193 19.6821 9.51123 19.6567Z" fill="white"/>
</svg>
