<svg width="25" height="24" viewBox="0 0 25 24" fill="none" xmlns="http://www.w3.org/2000/svg">
<path fill-rule="evenodd" clip-rule="evenodd" d="M0.792343 12C0.792343 5.37239 6.16584 -0.000110626 12.7924 -0.000110626C19.4196 -0.000110626 24.7923 5.37239 24.7923 12C24.7923 17.3002 21.3583 21.7967 16.5929 23.3853C15.9846 23.5031 15.7686 23.1289 15.7686 22.8096C15.7686 22.6786 15.7702 22.4491 15.7722 22.1423V22.1422V22.1421V22.1421V22.142V22.1418V22.1417C15.7763 21.5228 15.7825 20.5896 15.7825 19.5164C15.7825 18.3969 15.399 17.6666 14.9686 17.2942C17.6407 16.9971 20.448 15.9823 20.448 11.3732C20.448 10.0631 19.9824 8.99261 19.213 8.15224C19.3376 7.84979 19.7485 6.62947 19.0953 4.97655C19.0953 4.97655 18.089 4.65403 15.7986 6.2066C14.8396 5.94072 13.8123 5.80738 12.7924 5.80281C11.7726 5.80738 10.7461 5.94072 9.78884 6.2066C7.49565 4.65403 6.48796 4.97655 6.48796 4.97655C5.83637 6.62947 6.24711 7.84979 6.37171 8.15224C5.60407 8.99261 5.1353 10.0631 5.1353 11.3732C5.1353 15.9713 7.9372 17.0003 10.6026 17.3037C10.2594 17.6032 9.94841 18.1328 9.84071 18.9084C9.15593 19.215 7.41895 19.7454 6.34866 17.911C6.34866 17.911 5.71416 16.7586 4.50914 16.6742C4.50914 16.6742 3.3383 16.6589 4.42707 17.4037C4.42707 17.4037 5.21359 17.7725 5.75946 19.1595C5.75946 19.1595 6.46392 21.3013 9.80236 20.5754C9.80516 21.1201 9.80973 21.6478 9.81331 22.0622L9.81332 22.0628C9.81633 22.4109 9.81865 22.6789 9.81865 22.8096C9.81865 23.1265 9.59847 23.4979 8.99874 23.3868C4.23074 21.8001 0.792343 17.3019 0.792343 12ZM5.13172 17.266C5.21717 17.3069 5.31096 17.2892 5.33739 17.2294C5.36759 17.1696 5.31792 17.0876 5.23068 17.0482C5.14384 17.0075 5.04985 17.0246 5.02401 17.0858C4.9958 17.1456 5.04468 17.2269 5.13172 17.266ZM5.82345 17.7715C5.76622 17.8245 5.65435 17.7999 5.57844 17.716C5.49995 17.6324 5.48524 17.5205 5.54327 17.4666C5.60228 17.4138 5.71078 17.4386 5.78947 17.5221C5.86797 17.6067 5.88327 17.7178 5.82345 17.7715ZM6.02852 18.3591C6.10284 18.4658 6.22306 18.5137 6.29659 18.4627C6.3717 18.4104 6.37171 18.2824 6.29838 18.1739C6.22306 18.0682 6.10463 18.0219 6.03011 18.0732C5.955 18.1244 5.95499 18.2524 6.02852 18.3591ZM6.9448 19.1304C6.87903 19.2029 6.73893 19.1834 6.63639 19.0845C6.53147 18.9877 6.50226 18.8504 6.56824 18.7778C6.63481 18.7051 6.77569 18.7256 6.87903 18.8237C6.98315 18.9203 7.01495 19.0586 6.9448 19.1304ZM7.53918 19.6148C7.6751 19.6547 7.81003 19.612 7.83904 19.518C7.86726 19.4224 7.77823 19.3131 7.64271 19.2722C7.50579 19.2295 7.37027 19.274 7.34205 19.3686C7.31463 19.4636 7.40345 19.5737 7.53918 19.6148ZM8.82108 19.59C8.82446 19.6889 8.70921 19.771 8.56653 19.7728C8.42305 19.776 8.30701 19.6959 8.30542 19.5985C8.30542 19.4986 8.41809 19.4173 8.56156 19.4149C8.70424 19.4121 8.82108 19.4916 8.82108 19.59ZM9.51123 19.6565C9.65292 19.6301 9.75208 19.5309 9.73499 19.4344C9.7169 19.3362 9.58992 19.2782 9.44804 19.3028C9.30894 19.3285 9.20799 19.4276 9.22528 19.5266C9.24297 19.6224 9.37193 19.682 9.51123 19.6565Z" fill="black"/>
</svg>
