<svg width="25" height="24" viewBox="0 0 25 24" fill="none" xmlns="http://www.w3.org/2000/svg">
<path d="M12.7924 -4.57764e-05C9.53335 -4.57764e-05 9.1247 0.0137691 7.84477 0.0721684C6.56751 0.130424 5.69518 0.333298 4.93188 0.629915C4.14277 0.936584 3.47357 1.34691 2.80643 2.01402C2.13931 2.68114 1.72899 3.3504 1.42232 4.13951C1.12569 4.9028 0.922835 5.77512 0.864539 7.05238C0.80615 8.33231 0.792343 8.74097 0.792343 12C0.792343 15.259 0.80615 15.6676 0.864539 16.9476C0.922835 18.2248 1.12569 19.0972 1.42232 19.8604C1.72899 20.6496 2.13931 21.3188 2.80643 21.9859C3.47357 22.653 4.14277 23.0634 4.93188 23.37C5.69518 23.6667 6.56751 23.8695 7.84477 23.9278C9.1247 23.9862 9.53335 24 12.7924 24C16.0514 24 16.46 23.9862 17.74 23.9278C19.0172 23.8695 19.8895 23.6667 20.6528 23.37C21.4419 23.0634 22.1112 22.653 22.7783 21.9859C23.4454 21.3188 23.8558 20.6496 24.1624 19.8604C24.459 19.0972 24.6619 18.2248 24.7202 16.9476C24.7786 15.6676 24.7924 15.259 24.7924 12C24.7924 8.74097 24.7786 8.33231 24.7202 7.05238C24.6619 5.77512 24.459 4.9028 24.1624 4.13951C23.8558 3.3504 23.4454 2.68114 22.7783 2.01402C22.1112 1.34691 21.4419 0.936584 20.6528 0.629915C19.8895 0.333298 19.0172 0.130424 17.74 0.0721684C16.46 0.0137691 16.0514 -4.57764e-05 12.7924 -4.57764e-05ZM12.7924 2.16212C15.9965 2.16212 16.376 2.17436 17.6414 2.23209C18.8114 2.28544 19.4468 2.48093 19.8696 2.64527C20.4298 2.86296 20.8295 3.12299 21.2494 3.54289C21.6693 3.96283 21.9294 4.36258 22.1471 4.92271C22.3114 5.34556 22.5069 5.98095 22.5603 7.15094C22.618 8.41629 22.6302 8.79584 22.6302 12C22.6302 15.2041 22.618 15.5837 22.5603 16.849C22.5069 18.019 22.3114 18.6544 22.1471 19.0772C21.9294 19.6374 21.6693 20.0371 21.2494 20.457C20.8295 20.877 20.4298 21.137 19.8696 21.3547C19.4468 21.519 18.8114 21.7145 17.6414 21.7679C16.3762 21.8256 15.9967 21.8378 12.7924 21.8378C9.58799 21.8378 9.20854 21.8256 7.94333 21.7679C6.77334 21.7145 6.13794 21.519 5.7151 21.3547C5.15496 21.137 4.75522 20.877 4.33532 20.457C3.91542 20.0371 3.65534 19.6374 3.43766 19.0772C3.27332 18.6544 3.07785 18.019 3.02447 16.849C2.96673 15.5837 2.95451 15.2041 2.95451 12C2.95451 8.79584 2.96673 8.41629 3.02447 7.15094C3.07785 5.98095 3.27332 5.34556 3.43766 4.92271C3.65534 4.36258 3.9154 3.96283 4.3353 3.54294C4.75522 3.12299 5.15496 2.86296 5.7151 2.64527C6.13794 2.48093 6.77334 2.28544 7.94333 2.23209C9.20868 2.17436 9.58823 2.16212 12.7924 2.16212Z" fill="black"/>
<path d="M12.7924 15.9999C10.5832 15.9999 8.79235 14.2091 8.79235 12C8.79235 9.79079 10.5832 7.99993 12.7924 7.99993C15.0015 7.99993 16.7924 9.79079 16.7924 12C16.7924 14.2091 15.0015 15.9999 12.7924 15.9999ZM12.7924 5.83777C9.38907 5.83777 6.63019 8.59665 6.63019 12C6.63019 15.4032 9.38907 18.1621 12.7924 18.1621C16.1957 18.1621 18.9545 15.4032 18.9545 12C18.9545 8.59665 16.1957 5.83777 12.7924 5.83777Z" fill="black"/>
<path d="M20.638 5.59444C20.638 6.38974 19.9933 7.03442 19.198 7.03442C18.4027 7.03442 17.758 6.38974 17.758 5.59444C17.758 4.79914 18.4027 4.15441 19.198 4.15441C19.9933 4.15441 20.638 4.79914 20.638 5.59444Z" fill="black"/>
</svg>
