<svg width="17" height="5" viewBox="0 0 17 5" fill="none" xmlns="http://www.w3.org/2000/svg">
<path d="M9.32575 0.500061H7.51832C7.26736 0.500061 7.05401 0.587938 6.87824 0.763557C6.70248 0.939316 6.61475 1.15253 6.61475 1.40363V3.2112C6.61475 3.46231 6.70262 3.67551 6.87824 3.85114C7.054 4.0269 7.26736 4.11463 7.51832 4.11463H9.32575C9.57685 4.11463 9.79005 4.02676 9.96568 3.85114C10.1414 3.67552 10.2292 3.46216 10.2292 3.2112L10.2293 1.40378C10.2293 1.15267 10.1414 0.939326 9.96582 0.7637C9.7902 0.587942 9.57685 0.500064 9.32574 0.500064L9.32575 0.500061Z" fill="black"/>
<path d="M2.711 0.500061H0.903573C0.652609 0.500061 0.439265 0.587938 0.263496 0.763557C0.0877381 0.939316 0 1.15253 0 1.40363V3.2112C0 3.46231 0.0878771 3.67551 0.263496 3.85114C0.439255 4.0269 0.652613 4.11463 0.903573 4.11463H2.711C2.96196 4.11463 3.17531 4.02676 3.35108 3.85114C3.52683 3.67552 3.61457 3.46216 3.61457 3.2112L3.61471 1.40378C3.61471 1.15267 3.52683 0.939326 3.35122 0.7637C3.17546 0.588081 2.96196 0.500064 2.711 0.500064L2.711 0.500061Z" fill="black"/>
<path d="M16.5809 0.763802C16.4051 0.588043 16.1917 0.500305 15.9406 0.500305H14.1332C13.882 0.500305 13.6688 0.588182 13.493 0.763802C13.3174 0.93956 13.2295 1.15278 13.2295 1.40388V3.21145C13.2295 3.46255 13.3174 3.67575 13.493 3.85138C13.6687 4.02714 13.882 4.11488 14.1332 4.11488H15.9406C16.1917 4.11488 16.4051 4.027 16.5809 3.85138C16.7565 3.67576 16.8444 3.46241 16.8444 3.21145V1.40388C16.8444 1.15278 16.7566 0.939428 16.5809 0.763802Z" fill="black"/>
</svg>
