<svg width="17" height="16" viewBox="0 0 17 16" fill="none" xmlns="http://www.w3.org/2000/svg">
<path d="M5.18667 1.49996C7.344 1.50063 8.502 3.82729 9 4.85396C9.5 3.82263 10.646 1.50663 12.8173 1.50663C14.1893 1.50663 15.6667 2.37929 15.6667 4.29463C15.6667 6.58929 12.504 9.52863 9 12.9613C5.49467 9.52729 2.33333 6.58863 2.33333 4.29463C2.33333 2.51063 3.64333 1.49929 5.18667 1.49996ZM5.18733 0.166626C3.06533 0.166626 1 1.62463 1 4.29463C1 7.40196 4.71333 10.5793 9 14.8333C13.2867 10.5793 17 7.40196 17 4.29463C17 1.62063 14.9353 0.173293 12.8173 0.173293C11.348 0.173293 9.85333 0.867959 9 2.33196C8.14333 0.861293 6.652 0.166626 5.18733 0.166626Z" fill="#EB6B63"/>
<path d="M5.18667 1.49996C7.344 1.50063 8.502 3.82729 9 4.85396C9.5 3.82263 10.646 1.50663 12.8173 1.50663C14.1893 1.50663 15.6667 2.37929 15.6667 4.29463C15.6667 6.58929 12.504 9.52863 9 12.9613C5.49467 9.52729 2.33333 6.58863 2.33333 4.29463C2.33333 2.51063 3.64333 1.49929 5.18667 1.49996Z" fill="#EB6B63"/>
<path d="M5.18667 1.49996C7.344 1.50063 8.502 3.82729 9 4.85396C9.5 3.82263 10.646 1.50663 12.8173 1.50663C14.1893 1.50663 15.6667 2.37929 15.6667 4.29463C15.6667 6.58929 12.504 9.52863 9 12.9613C5.49467 9.52729 2.33333 6.58863 2.33333 4.29463C2.33333 2.51063 3.64333 1.49929 5.18667 1.49996ZM5.18733 0.166626C3.06533 0.166626 1 1.62463 1 4.29463C1 7.40196 4.71333 10.5793 9 14.8333C13.2867 10.5793 17 7.40196 17 4.29463C17 1.62063 14.9353 0.173293 12.8173 0.173293C11.348 0.173293 9.85333 0.867959 9 2.33196C8.14333 0.861293 6.652 0.166626 5.18733 0.166626Z" stroke="#EB6B63" stroke-width="0.3"/>
<path d="M5.18667 1.49996C7.344 1.50063 8.502 3.82729 9 4.85396C9.5 3.82263 10.646 1.50663 12.8173 1.50663C14.1893 1.50663 15.6667 2.37929 15.6667 4.29463C15.6667 6.58929 12.504 9.52863 9 12.9613C5.49467 9.52729 2.33333 6.58863 2.33333 4.29463C2.33333 2.51063 3.64333 1.49929 5.18667 1.49996Z" stroke="#EB6B63" stroke-width="0.3"/>
</svg>
