<svg width="25" height="24" viewBox="0 0 25 24" fill="none" xmlns="http://www.w3.org/2000/svg">
<path fill-rule="evenodd" clip-rule="evenodd" d="M24.7923 12C24.7923 18.6274 19.4198 24 12.7923 24C6.16493 24 0.792343 18.6274 0.792343 12C0.792343 5.37258 6.16493 0 12.7923 0C19.4198 0 24.7923 5.37258 24.7923 12ZM19.038 10.2456C20.0064 10.2456 20.7923 11.0316 20.7923 12C20.7923 12.7158 20.3573 13.3334 19.7818 13.6141C19.8099 13.7825 19.8239 13.9509 19.8239 14.1334C19.8239 16.8281 16.6941 19.0035 12.8204 19.0035C8.94673 19.0035 5.8169 16.8281 5.8169 14.1334C5.8169 13.9509 5.83094 13.7684 5.85901 13.6C5.24146 13.3193 4.82041 12.7158 4.82041 12C4.82041 11.0316 5.60637 10.2456 6.5748 10.2456C7.03795 10.2456 7.47304 10.4421 7.78181 10.7369C8.98883 9.85266 10.659 9.30529 12.5257 9.24915L13.4099 5.06669C13.438 4.98248 13.4801 4.91231 13.5502 4.8702C13.6204 4.8281 13.7046 4.81406 13.7888 4.8281L16.6941 5.44564C16.8906 5.02459 17.3116 4.74388 17.8029 4.74388C18.4906 4.74388 19.052 5.30529 19.052 5.99301C19.052 6.68073 18.4906 7.24213 17.8029 7.24213C17.1292 7.24213 16.5818 6.7088 16.5537 6.04915L13.9573 5.50178L13.1573 9.24915C14.9818 9.31932 16.638 9.88073 17.8309 10.7369C18.1397 10.4281 18.5608 10.2456 19.038 10.2456ZM10.0415 12C9.35374 12 8.79234 12.5614 8.79234 13.2491C8.79234 13.9369 9.35374 14.4983 10.0415 14.4983C10.7292 14.4983 11.2906 13.9369 11.2906 13.2491C11.2906 12.5614 10.7292 12 10.0415 12ZM12.8064 17.4597C13.2836 17.4597 14.9116 17.4035 15.7678 16.5474C15.8941 16.4211 15.8941 16.2246 15.7959 16.0842C15.6695 15.9579 15.459 15.9579 15.3327 16.0842C14.7853 16.6176 13.6485 16.8141 12.8204 16.8141C11.9923 16.8141 10.8415 16.6176 10.3081 16.0842C10.1818 15.9579 9.97129 15.9579 9.84497 16.0842C9.71866 16.2106 9.71866 16.4211 9.84497 16.5474C10.6871 17.3895 12.3292 17.4597 12.8064 17.4597ZM14.2941 13.2491C14.2941 13.9369 14.8555 14.4983 15.5432 14.4983C16.2309 14.4983 16.7923 13.9369 16.7923 13.2491C16.7923 12.5614 16.2309 12 15.5432 12C14.8555 12 14.2941 12.5614 14.2941 13.2491Z" fill="white"/>
</svg>
