<svg width="16" height="16" viewBox="0 0 16 16" fill="none" xmlns="http://www.w3.org/2000/svg">
<path fill-rule="evenodd" clip-rule="evenodd" d="M10.667 6.66667C10.667 8.50761 9.17465 10 7.3337 10C5.49275 10 4.00037 8.50761 4.00037 6.66667C4.00037 4.82572 5.49275 3.33333 7.3337 3.33333C9.17465 3.33333 10.667 4.82572 10.667 6.66667ZM9.95413 10.5287C9.20711 11.0365 8.30505 11.3333 7.33366 11.3333C4.75633 11.3333 2.66699 9.244 2.66699 6.66667C2.66699 4.08934 4.75633 2 7.33366 2C9.91099 2 12.0003 4.08934 12.0003 6.66667C12.0003 7.78992 11.6035 8.82047 10.9423 9.6258L14.4508 12.8419C14.7222 13.0907 14.7405 13.5124 14.4918 13.7838C14.243 14.0552 13.8213 14.0735 13.5499 13.8248L9.95413 10.5287Z" fill="#7B8394"/>
</svg>
