<svg width="25" height="24" viewBox="0 0 25 24" fill="none" xmlns="http://www.w3.org/2000/svg">
<path fill-rule="evenodd" clip-rule="evenodd" d="M24.7923 12C24.7923 18.6274 19.4198 24 12.7923 24C6.16493 24 0.792343 18.6274 0.792343 12C0.792343 5.37258 6.16493 0 12.7923 0C19.4198 0 24.7923 5.37258 24.7923 12ZM13.2224 8.8589C12.0552 9.34437 9.72247 10.3492 6.22423 11.8733C5.65617 12.0992 5.35859 12.3202 5.3315 12.5363C5.28572 12.9015 5.74305 13.0453 6.36581 13.2411C6.45052 13.2677 6.53829 13.2953 6.62827 13.3246C7.24097 13.5238 8.06516 13.7568 8.49362 13.766C8.88228 13.7744 9.31606 13.6142 9.79498 13.2853C13.0635 11.079 14.7507 9.96378 14.8566 9.93974C14.9314 9.92278 15.0349 9.90145 15.1051 9.96382C15.1753 10.0262 15.1684 10.1443 15.1609 10.176C15.1156 10.3691 13.3205 12.0381 12.3915 12.9018C12.1018 13.171 11.8964 13.362 11.8544 13.4056C11.7603 13.5033 11.6645 13.5957 11.5723 13.6846C11.0031 14.2333 10.5762 14.6448 11.5959 15.3168C12.086 15.6397 12.4781 15.9067 12.8693 16.1731C13.2965 16.4641 13.7226 16.7542 14.2739 17.1156C14.4144 17.2077 14.5486 17.3034 14.6792 17.3965C15.1764 17.751 15.6231 18.0694 16.1749 18.0186C16.4956 17.9891 16.8268 17.6876 16.995 16.7883C17.3925 14.6631 18.174 10.0584 18.3546 8.16094C18.3704 7.9947 18.3505 7.78194 18.3345 7.68854C18.3185 7.59515 18.2851 7.46208 18.1637 7.36357C18.0199 7.24691 17.798 7.2223 17.6987 7.22405C17.2474 7.232 16.5549 7.47279 13.2224 8.8589Z" fill="white"/>
</svg>
