<svg width="25" height="24" viewBox="0 0 25 24" fill="none" xmlns="http://www.w3.org/2000/svg">
<path d="M24.7923 12C24.7923 18.63 19.4223 24 12.7923 24C6.16234 24 0.792343 18.63 0.792343 12C0.792343 5.37 6.16234 0 12.7923 0C19.4223 0 24.7923 5.37 24.7923 12ZM10.5963 18.33C15.9183 18.33 18.8283 13.92 18.8283 10.098C18.8283 9.972 18.8283 9.846 18.8223 9.726C19.3863 9.318 19.8783 8.808 20.2683 8.226C19.7523 8.454 19.1943 8.61 18.6063 8.682C19.2063 8.322 19.6623 7.758 19.8783 7.08C19.3203 7.41 18.7023 7.65 18.0423 7.782C17.5143 7.218 16.7643 6.87 15.9303 6.87C14.3343 6.87 13.0383 8.166 13.0383 9.762C13.0383 9.99 13.0623 10.212 13.1163 10.422C10.7103 10.302 8.58034 9.15 7.15234 7.398C6.90634 7.824 6.76234 8.322 6.76234 8.85C6.76234 9.852 7.27234 10.74 8.05234 11.256C7.57834 11.244 7.13434 11.112 6.74434 10.896C6.74434 10.908 6.74434 10.92 6.74434 10.932C6.74434 12.336 7.74034 13.5 9.06634 13.77C8.82634 13.836 8.56834 13.872 8.30434 13.872C8.11834 13.872 7.93834 13.854 7.75834 13.818C8.12434 14.97 9.19234 15.804 10.4583 15.828C9.46834 16.602 8.22034 17.064 6.86434 17.064C6.63034 17.064 6.40234 17.052 6.17434 17.022C7.44034 17.85 8.96434 18.33 10.5963 18.33Z" fill="black"/>
</svg>
